<svg width="20" height="20" viewBox="0 0 20 20" fill="none" xmlns="http://www.w3.org/2000/svg">
<g clip-path="url(#clip0_1002_1602)">
<path d="M6.875 18.8438V14.5312L3.65625 16.9062C4.5625 17.75 5.65625 18.4063 6.875 18.8438Z" fill="#2A5F9E"/>
<path d="M13.125 18.8438C14.3437 18.4062 15.4375 17.75 16.3437 16.9062L13.125 14.5V18.8438Z" fill="#2A5F9E"/>
<path d="M1.15625 13.125C1.25 13.4375 1.375 13.7188 1.53125 14.0312L2.75 13.125H1.15625Z" fill="#2A5F9E"/>
<path d="M17.25 13.125L18.4687 14.0312C18.5937 13.75 18.7188 13.4375 18.8438 13.125H17.25Z" fill="#2A5F9E"/>
<path d="M7.34375 11.875H0.8125C0.90625 12.3125 1.03125 12.7188 1.15625 13.125H2.75L1.53125 14.0313C1.78125 14.5625 2.0625 15.0313 2.40625 15.5L5.625 13.125H6.875V13.75L3.21875 16.4375L3.65625 16.875L6.875 14.5313V18.8438C7.28125 19 7.6875 19.0938 8.125 19.1875V11.875H7.34375Z" fill="white"/>
<path d="M19.1875 11.875H11.875V19.1875C12.3125 19.0938 12.7188 18.9688 13.125 18.8438V14.5313L16.3438 16.875C16.7813 16.4688 17.1563 16.0313 17.5313 15.5625L14.1875 13.125H16.3125L18.2188 14.5313C18.3125 14.375 18.4063 14.1875 18.4688 14.0313L17.25 13.125H18.8438C18.9688 12.7188 19.0938 12.3125 19.1875 11.875Z" fill="white"/>
<path d="M2.40625 15.5C2.65625 15.8438 2.90625 16.1563 3.1875 16.4688L6.875 13.7813V13.1562H5.625L2.40625 15.5Z" fill="#ED4C5C"/>
<path d="M14.2188 13.125L17.5625 15.5625C17.6875 15.4062 17.7812 15.25 17.9062 15.0938C17.9375 15.0625 17.9375 15.0312 17.9688 15.0312C18.0625 14.875 18.1875 14.6875 18.2812 14.5313L16.3125 13.125H14.2188Z" fill="#ED4C5C"/>
<path d="M13.125 1.15625V5.46875L16.3437 3.09375C15.4375 2.25 14.3437 1.59375 13.125 1.15625Z" fill="#2A5F9E"/>
<path d="M6.875 1.15625C5.65625 1.59375 4.5625 2.25 3.65625 3.09375L6.875 5.5V1.15625Z" fill="#2A5F9E"/>
<path d="M18.8438 6.875C18.75 6.5625 18.625 6.28125 18.4687 5.96875L17.25 6.875H18.8438Z" fill="#2A5F9E"/>
<path d="M2.75 6.875L1.53125 5.96875C1.40625 6.28125 1.28125 6.5625 1.15625 6.875H2.75Z" fill="#2A5F9E"/>
<path d="M12.6563 8.125H19.1563C19.0625 7.6875 18.9375 7.28125 18.8125 6.875H17.2188L18.4375 5.96875C18.1875 5.4375 17.9063 4.96875 17.5625 4.5L14.375 6.875H13.125V6.25L16.7813 3.5625L16.3438 3.125L13.125 5.46875V1.15625C12.7188 1 12.3125 0.90625 11.875 0.8125V8.125H12.6563Z" fill="white"/>
<path d="M0.8125 8.125H8.125V0.8125C7.6875 0.90625 7.28125 1.03125 6.875 1.15625V5.46875L3.65625 3.125C3.21875 3.53125 2.84375 3.96875 2.46875 4.4375L5.8125 6.875H3.6875L1.78125 5.46875C1.6875 5.625 1.59375 5.8125 1.53125 5.96875L2.75 6.875H1.15625C1.03125 7.28125 0.90625 7.6875 0.8125 8.125Z" fill="white"/>
<path d="M17.5938 4.5C17.3438 4.15625 17.0938 3.84375 16.8125 3.53125L13.125 6.21875V6.84375H14.375L17.5938 4.5Z" fill="#ED4C5C"/>
<path d="M5.78125 6.875L2.46875 4.4375C2.34375 4.59375 2.25 4.75 2.125 4.90625C2.09375 4.9375 2.09375 4.96875 2.0625 4.96875C1.96875 5.125 1.84375 5.3125 1.75 5.46875L3.65625 6.875H5.78125Z" fill="#ED4C5C"/>
<path d="M19.1875 8.125H11.875V0.8125C11.2812 0.6875 10.6562 0.625 10 0.625C9.34375 0.625 8.71875 0.6875 8.125 0.8125V8.125H0.8125C0.6875 8.71875 0.625 9.34375 0.625 10C0.625 10.6562 0.6875 11.2812 0.8125 11.875H8.125V19.1875C8.71875 19.3125 9.34375 19.375 10 19.375C10.6562 19.375 11.2812 19.3125 11.875 19.1875V11.875H19.1875C19.3125 11.2812 19.375 10.6562 19.375 10C19.375 9.34375 19.3125 8.71875 19.1875 8.125Z" fill="#ED4C5C"/>
</g>
<defs>
<clipPath id="clip0_1002_1602">
<rect width="20" height="20" fill="white"/>
</clipPath>
</defs>
</svg>
