<svg width="19" height="19" viewBox="0 0 19 19" fill="none" xmlns="http://www.w3.org/2000/svg">
<path d="M0 9.375C0 13.4688 2.625 16.9375 6.25 18.2188V0.53125C2.625 1.8125 0 5.28125 0 9.375Z" fill="#428BC1"/>
<path d="M18.75 9.375C18.75 5.28125 16.1563 1.8125 12.5 0.53125V18.2188C16.1563 16.9375 18.75 13.4688 18.75 9.375Z" fill="#ED4C5C"/>
<path d="M6.25 18.2188C7.21875 18.5625 8.28125 18.75 9.375 18.75C10.4687 18.75 11.5312 18.5625 12.5 18.2188V0.53125C11.5312 0.1875 10.5 0 9.375 0C8.25 0 7.21875 0.1875 6.25 0.53125V18.2188Z" fill="white"/>
</svg>
