<svg width="20" height="20" viewBox="0 0 20 20" fill="none" xmlns="http://www.w3.org/2000/svg">
<g clip-path="url(#clip0_1002_1698)">
<path d="M9.96875 0.625C5.875 0.625 2.40625 3.25 1.125 6.875H18.8125C17.5313 3.25 14.0625 0.625 9.96875 0.625Z" fill="#3E4347"/>
<path d="M9.96875 19.375C14.0625 19.375 17.5313 16.7812 18.8125 13.125H1.125C2.40625 16.7812 5.875 19.375 9.96875 19.375Z" fill="#FFE62E"/>
<path d="M1.125 6.875C0.78125 7.84375 0.59375 8.90625 0.59375 10C0.59375 11.0938 0.78125 12.1562 1.125 13.125H18.8125C19.1562 12.1562 19.3438 11.0938 19.3438 10C19.3438 8.90625 19.1562 7.84375 18.8125 6.875H1.125Z" fill="#ED4C5C"/>
</g>
<defs>
<clipPath id="clip0_1002_1698">
<rect width="20" height="20" fill="white"/>
</clipPath>
</defs>
</svg>
