<svg width="14" height="16" viewBox="0 0 14 16" fill="none" xmlns="http://www.w3.org/2000/svg">
<path d="M5.6001 0.79253C5.6912 0.903237 5.74702 1.03872 5.76033 1.18148C5.77364 1.32423 5.74383 1.4677 5.67476 1.59334C5.13516 2.58407 4.85336 3.69459 4.85528 4.82273C4.85528 8.57573 7.9148 11.6147 11.6855 11.6147C12.1774 11.6147 12.6562 11.5634 13.1164 11.4654C13.2574 11.4348 13.4043 11.4465 13.5388 11.499C13.6732 11.5514 13.7893 11.6423 13.8724 11.7603C13.9601 11.883 14.0048 12.0312 13.9996 12.182C13.9944 12.3327 13.9395 12.4775 13.8434 12.5938C13.1114 13.493 12.1879 14.2175 11.1403 14.7145C10.0927 15.2115 8.94738 15.4685 7.78787 15.4666C3.48513 15.4666 0 12.0002 0 7.72918C0 4.51473 1.9731 1.75761 4.78248 0.589059C4.92243 0.529915 5.07778 0.517776 5.22522 0.554466C5.37265 0.591155 5.5042 0.674693 5.6001 0.79253ZM4.53421 1.75668C3.45396 2.33613 2.55088 3.19744 1.92096 4.24906C1.29103 5.30068 0.957804 6.50333 0.956683 7.72918C0.956683 11.4812 4.01714 14.5202 7.78787 14.5202C8.69083 14.5218 9.58514 14.3443 10.419 13.9979C11.2529 13.6515 12.0098 13.1432 12.646 12.5023C12.3314 12.5415 12.0113 12.5611 11.6855 12.5611C7.38279 12.5611 3.8986 9.09467 3.8986 4.82367C3.8986 3.73445 4.12447 2.6975 4.53421 1.75668Z" fill="#B4B4B4"/>
</svg>
