<svg width="13" height="13" viewBox="0 0 13 13" fill="none" xmlns="http://www.w3.org/2000/svg">
<path d="M12.7864 11.7612L10.3317 9.31367C11.1237 8.30465 11.5534 7.05865 11.5518 5.77592C11.5518 4.63355 11.2131 3.51684 10.5784 2.56699C9.94375 1.61715 9.04168 0.876833 7.98627 0.439668C6.93086 0.0025026 5.76951 -0.11188 4.64909 0.110985C3.52868 0.33385 2.49951 0.883953 1.69173 1.69173C0.883953 2.49951 0.33385 3.52868 0.110985 4.64909C-0.11188 5.76951 0.0025026 6.93086 0.439668 7.98627C0.876833 9.04168 1.61715 9.94375 2.56699 10.5784C3.51684 11.2131 4.63355 11.5518 5.77592 11.5518C7.05865 11.5534 8.30465 11.1237 9.31367 10.3317L11.7612 12.7864C11.8283 12.8541 11.9082 12.9078 11.9962 12.9445C12.0841 12.9811 12.1785 13 12.2738 13C12.3691 13 12.4635 12.9811 12.5515 12.9445C12.6395 12.9078 12.7193 12.8541 12.7864 12.7864C12.8541 12.7193 12.9078 12.6395 12.9445 12.5515C12.9811 12.4635 13 12.3691 13 12.2738C13 12.1785 12.9811 12.0841 12.9445 11.9962C12.9078 11.9082 12.8541 11.8283 12.7864 11.7612ZM1.44398 5.77592C1.44398 4.91914 1.69805 4.08161 2.17404 3.36922C2.65004 2.65684 3.3266 2.1016 4.11816 1.77373C4.90972 1.44586 5.78072 1.36007 6.62104 1.52722C7.46135 1.69437 8.23323 2.10694 8.83906 2.71278C9.44489 3.31861 9.85747 4.09049 10.0246 4.9308C10.1918 5.77111 10.106 6.64212 9.77811 7.43368C9.45023 8.22524 8.895 8.90179 8.18261 9.37779C7.47023 9.85379 6.6327 10.1079 5.77592 10.1079C4.62702 10.1079 3.52517 9.65146 2.71278 8.83906C1.90038 8.02666 1.44398 6.92482 1.44398 5.77592Z" fill="#C8C8C8"/>
</svg>
