<svg width="16" height="17" viewBox="0 0 16 17" fill="none" xmlns="http://www.w3.org/2000/svg">
<path d="M15.8021 6.79072L14.0137 6.25686C13.89 5.82514 13.72 5.40808 13.5065 5.01298L14.3821 3.37405C14.4149 3.31218 14.4269 3.24137 14.4164 3.17213C14.4058 3.10289 14.3732 3.0389 14.3233 2.98967L13.0474 1.70842C12.9982 1.65859 12.9342 1.62597 12.865 1.61539C12.7957 1.60481 12.7249 1.61684 12.663 1.64969L11.0348 2.51988C10.6358 2.29601 10.2133 2.11697 9.77489 1.98602L9.24103 0.218962C9.21845 0.153841 9.17579 0.0975631 9.11919 0.0582302C9.06259 0.0188973 8.99496 -0.00146236 8.92606 8.17699e-05H7.12163C7.0523 0.000404525 6.98489 0.0228424 6.9292 0.0641301C6.87351 0.105418 6.83245 0.1634 6.81199 0.229639L6.27813 1.99136C5.83611 2.12161 5.40996 2.30066 5.00756 2.52522L3.406 1.66037C3.34413 1.62752 3.27332 1.61549 3.20408 1.62607C3.13484 1.63665 3.07085 1.66927 3.02162 1.71909L1.72435 2.98433C1.67453 3.03356 1.6419 3.09755 1.63133 3.16679C1.62075 3.23604 1.63278 3.30684 1.66563 3.36871L2.53047 4.97027C2.30628 5.37098 2.12724 5.79532 1.99662 6.23551L0.229558 6.76936C0.163319 6.78982 0.105336 6.83088 0.0640483 6.88657C0.0227607 6.94226 0.000322755 7.00967 0 7.079V8.88343C0.000322755 8.95275 0.0227607 9.02017 0.0640483 9.07586C0.105336 9.13155 0.163319 9.17261 0.229558 9.19306L2.00729 9.72692C2.13934 10.1598 2.31836 10.5769 2.54115 10.9708L1.66563 12.6471C1.63278 12.709 1.62075 12.7798 1.63133 12.849C1.6419 12.9183 1.67453 12.9822 1.72435 13.0315L3.00027 14.3074C3.0495 14.3572 3.11348 14.3898 3.18273 14.4004C3.25197 14.411 3.32278 14.399 3.38464 14.3661L5.03425 13.4853C5.42448 13.6958 5.83611 13.8641 6.26212 13.9871L6.79597 15.7862C6.81643 15.8524 6.85749 15.9104 6.91318 15.9517C6.96887 15.993 7.03629 16.0154 7.10561 16.0157H8.91004C8.97937 16.0154 9.04678 15.993 9.10247 15.9517C9.15816 15.9104 9.19922 15.8524 9.21968 15.7862L9.75353 13.9817C10.1759 13.8581 10.5839 13.6899 10.9707 13.4799L12.631 14.3661C12.6929 14.399 12.7637 14.411 12.8329 14.4004C12.9022 14.3898 12.9662 14.3572 13.0154 14.3074L14.2913 13.0315C14.3411 12.9822 14.3737 12.9183 14.3843 12.849C14.3949 12.7798 14.3829 12.709 14.35 12.6471L13.4638 10.9922C13.676 10.6039 13.846 10.194 13.971 9.76963L15.7701 9.23577C15.8363 9.21532 15.8943 9.17426 15.9356 9.11857C15.9769 9.06287 15.9993 8.99546 15.9996 8.92614V7.10569C16.0028 7.03931 15.9855 6.97355 15.9502 6.91725C15.9149 6.86094 15.8632 6.81679 15.8021 6.79072ZM8.02384 10.9441C7.44311 10.9441 6.87543 10.7719 6.39257 10.4493C5.90972 10.1266 5.53338 9.66806 5.31114 9.13154C5.08891 8.59502 5.03076 8.00465 5.14406 7.43508C5.25735 6.86552 5.537 6.34233 5.94763 5.9317C6.35827 5.52106 6.88145 5.24142 7.45102 5.12812C8.02058 5.01483 8.61096 5.07298 9.14748 5.29521C9.684 5.51744 10.1426 5.89378 10.4652 6.37664C10.7878 6.8595 10.96 7.42718 10.96 8.00791C10.96 8.78664 10.6507 9.53347 10.1 10.0841C9.54941 10.6348 8.80257 10.9441 8.02384 10.9441Z" fill="#797979"/>
</svg>
