<svg width="20" height="20" viewBox="0 0 20 20" fill="none" xmlns="http://www.w3.org/2000/svg">
<g clip-path="url(#clip0_1002_1641)">
<path d="M0.625 10C0.625 11.8438 1.15625 13.5625 2.0625 15H17.9062C18.8125 13.5625 19.3438 11.8438 19.3438 10C19.3438 8.15625 18.8125 6.4375 17.9062 5H2.0625C1.15625 6.4375 0.625 8.15625 0.625 10Z" fill="#FFCE31"/>
<path d="M17.9375 5C16.2813 2.375 13.3438 0.625 10 0.625C6.65625 0.625 3.71875 2.375 2.0625 5H17.9375Z" fill="#ED4C5C"/>
<path d="M2.0625 15C3.71875 17.625 6.65625 19.375 10 19.375C13.3438 19.375 16.2813 17.625 17.9375 15H2.0625Z" fill="#ED4C5C"/>
<path d="M2.875 8.96875H3.875V9.53125H2.875V8.96875Z" fill="#C8B100"/>
<path d="M2.875 13.0938H3.90625V13.625H2.875V13.0938Z" fill="#C8B100"/>
<path d="M2.78125 12.2188C2.6875 12.2812 2.625 12.3438 2.625 12.375C2.625 12.4062 2.65625 12.4375 2.71875 12.4688C2.78125 12.5 2.84375 12.5625 2.8125 12.625C2.875 12.5625 2.90625 12.5 2.90625 12.4375C2.90625 12.3438 2.84375 12.25 2.78125 12.2188Z" fill="#ED4C5C"/>
<path d="M3.03125 9.53125H3.75V13.0938H3.03125V9.53125Z" fill="white"/>
<path d="M4.49987 10.8438C4.34362 10.7813 4.06237 10.7188 3.74987 10.7188C3.65612 10.7188 3.53112 10.7188 3.40612 10.75C2.96862 10.8125 2.62487 11 2.65612 11.125L2.49987 10.7813C2.46862 10.625 2.84362 10.4375 3.31237 10.3437C3.46862 10.3125 3.62487 10.3125 3.74987 10.3125C4.06237 10.3125 4.34362 10.3437 4.49987 10.4062V10.8438Z" fill="#ED4C5C"/>
<path d="M3.03125 11.3125C2.84375 11.3125 2.6875 11.25 2.6875 11.1563C2.6875 11.0938 2.75 11 2.875 10.9375H3.0625L3.03125 11.3125Z" fill="#ED4C5C"/>
<path d="M3.75 11.0312C3.875 11.0625 3.96875 11.0937 4.03125 11.125C4.0625 11.1562 3.9375 11.2813 3.75 11.375V11.0312Z" fill="#ED4C5C"/>
<path d="M2.56255 12C2.5313 11.9375 2.75005 11.8125 3.0313 11.7188C3.1563 11.6875 3.25005 11.625 3.4063 11.5625C3.7813 11.4063 4.0938 11.1875 4.0313 11.125L4.0938 11.5C4.12505 11.5625 3.87505 11.75 3.50005 11.9375C3.37505 12 3.1563 12.0938 3.0313 12.125C2.81255 12.1875 2.62505 12.3125 2.62505 12.3438L2.56255 12Z" fill="#ED4C5C"/>
<path d="M9.59375 8.96875H10.5938V9.53125H9.59375V8.96875Z" fill="#C8B100"/>
<path d="M9.5625 13.0938H10.5938V13.625H9.5625V13.0938Z" fill="#C8B100"/>
<path d="M10.6875 12.2188C10.7813 12.2813 10.8438 12.3438 10.8438 12.375C10.8438 12.4063 10.8125 12.4375 10.75 12.4688C10.6875 12.5313 10.625 12.625 10.6562 12.6563C10.5937 12.5938 10.5625 12.5313 10.5625 12.4688C10.5625 12.3438 10.625 12.25 10.6875 12.2188Z" fill="#ED4C5C"/>
<path d="M9.71875 9.53125H10.4375V13.0938H9.71875V9.53125Z" fill="white"/>
<path d="M8.96875 10.8438C9.125 10.7813 9.40625 10.7188 9.71875 10.7188C9.8125 10.7188 9.9375 10.7188 10.0625 10.75C10.5 10.8125 10.8437 11 10.8125 11.125L10.9687 10.75C11 10.5938 10.625 10.4063 10.1562 10.3125H9.71875C9.40625 10.3125 9.125 10.3437 8.96875 10.4062V10.8438Z" fill="#ED4C5C"/>
<path d="M10.4375 11.3125C10.625 11.3125 10.7812 11.25 10.7812 11.1563C10.7812 11.0938 10.7188 11 10.5938 10.9375H10.4062L10.4375 11.3125Z" fill="#ED4C5C"/>
<path d="M9.71865 11.0312C9.59365 11.0625 9.4999 11.0937 9.4374 11.125C9.40615 11.1562 9.53115 11.2813 9.71865 11.375V11.0312Z" fill="#ED4C5C"/>
<path d="M10.9064 12C10.9377 11.9375 10.7189 11.8125 10.4377 11.7188C10.3127 11.6875 10.2189 11.625 10.0627 11.5625C9.68769 11.4063 9.37519 11.1875 9.43769 11.125L9.37519 11.5C9.34394 11.5625 9.59394 11.75 9.96894 11.9375C10.0939 12 10.3127 12.0938 10.4377 12.125C10.6564 12.1875 10.8439 12.3438 10.8127 12.375L10.9064 12Z" fill="#ED4C5C"/>
<path d="M6.71875 6.96875C7.3125 6.96875 8.53125 7.09375 8.96875 7.53125C8.5 8.65625 7.75 8.1875 6.71875 8.1875C5.71875 8.1875 4.9375 8.65625 4.46875 7.53125C4.90625 7.09375 6.09375 6.96875 6.71875 6.96875Z" fill="#ED4C5C"/>
<path d="M8.25 8.21875C7.875 8 7.3125 7.96875 6.71875 7.96875C6.125 7.96875 5.5625 8.03125 5.1875 8.21875L5.3125 8.75C5.65625 8.84375 6.15625 8.90625 6.71875 8.90625C7.28125 8.90625 7.75 8.84375 8.125 8.75L8.25 8.21875Z" fill="#C8B100"/>
<path d="M8.78125 6.875C8.65625 6.78125 8.40625 6.6875 8.1875 6.6875C8.09375 6.6875 8 6.6875 7.90625 6.71875C7.90625 6.71875 7.71875 6.46875 7.28125 6.46875C7.125 6.46875 7 6.5 6.875 6.5625V6.53125C6.84375 6.46875 6.78125 6.40625 6.71875 6.40625C6.65625 6.40625 6.5625 6.5 6.5625 6.5625V6.59375C6.4375 6.53125 6.3125 6.5 6.15625 6.5C5.71875 6.5 5.53125 6.78125 5.53125 6.75C5.4375 6.71875 5.34375 6.71875 5.25 6.71875C3.8125 6.71875 4.53125 7.6875 4.53125 7.6875L4.6875 7.5C4.34375 7.0625 4.65625 6.8125 5.28125 6.8125C5.375 6.8125 5.4375 6.8125 5.5 6.84375C5.28125 7.15625 5.6875 7.4375 5.6875 7.4375L5.78125 7.28125C5.5625 7.125 5.53125 6.59375 6.15625 6.59375C6.3125 6.59375 6.4375 6.625 6.5625 6.71875C6.5625 6.75 6.53125 7.1875 6.5 7.25L6.75 7.46875L7 7.25C6.96875 7.15625 6.9375 6.75 6.9375 6.71875C7.03125 6.65625 7.1875 6.59375 7.34375 6.59375C8 6.59375 8 7.125 7.71875 7.28125L7.8125 7.4375C7.8125 7.4375 8.15625 7.15625 8 6.84375C8.0625 6.84375 8.15625 6.8125 8.21875 6.8125C8.96875 6.8125 9 7.375 8.8125 7.5L8.9375 7.6875C8.875 7.6875 9.21875 7.25 8.78125 6.875Z" fill="#C8B100"/>
<path d="M6.53125 6.28125C6.53125 6.1875 6.625 6.09375 6.71875 6.09375C6.84375 6.09375 6.90625 6.1875 6.90625 6.28125C6.90625 6.375 6.8125 6.46875 6.71875 6.46875C6.625 6.46875 6.53125 6.375 6.53125 6.28125Z" fill="#005BBF"/>
<path d="M6.71875 8.84375C6.21875 8.84375 5.78125 8.78125 5.4375 8.6875C5.78125 8.59375 6.21875 8.53125 6.71875 8.53125C7.21875 8.53125 7.65625 8.59375 8 8.6875C7.6875 8.78125 7.21875 8.84375 6.71875 8.84375Z" fill="#ED4C5C"/>
<path d="M6.75 14.25C6.15625 14.25 5.59375 14.0938 5.09375 13.875C4.71875 13.6875 4.5 13.3438 4.5 12.9375V11.4375H9V12.9375C9 13.3438 8.75 13.7188 8.40625 13.875C7.90625 14.125 7.34375 14.25 6.75 14.25Z" fill="white"/>
<path d="M6.71875 8.9375H8.96875V11.4375H6.71875V8.9375Z" fill="white"/>
<path d="M6.75 12.9375C6.75 13.5313 6.25 14 5.625 14C5 14 4.5 13.5313 4.5 12.9375V11.4375H6.75V12.9375Z" fill="#ED4C5C"/>
<path d="M4.96875 13.8125C5.03125 13.8437 5.125 13.9062 5.25 13.9375V11.375H5L4.96875 13.8125Z" fill="#C8B100"/>
<path d="M4.46875 12.9062C4.46875 13.2187 4.59375 13.4687 4.71875 13.5937V11.375H4.46875V12.9062Z" fill="#C8B100"/>
<path d="M5.46875 14H5.71875V11.375H5.46875V14Z" fill="#C7B500"/>
<path d="M5.96875 13.9375C6.0625 13.9062 6.1875 13.8437 6.25 13.8125V11.375H6L5.96875 13.9375Z" fill="#C8B100"/>
<path d="M4.46875 8.9375H6.71875V11.4375H4.46875V8.9375Z" fill="#ED4C5C"/>
<path d="M6.5 13.5938C6.625 13.5 6.71875 13.2813 6.75 13.0313V11.4062H6.5V13.5938Z" fill="#C8B100"/>
<path d="M9 11.4375V12.9375C9 13.5313 8.5 14 7.875 14C7.25 14 6.75 13.5313 6.75 12.9375V11.4375H9Z" fill="#ED4C5C"/>
<path d="M8.18766 9.37503C8.28141 9.56253 8.28141 10.0313 8.00016 9.93753C8.06266 9.96878 8.09391 10.1875 8.18766 10.3125C8.34391 10.5 8.53141 10.3438 8.50016 10.125C8.43766 9.78128 8.46891 9.56253 8.53141 9.21878C8.53141 9.25003 8.68766 9.25003 8.75016 9.18753C8.71891 9.28128 8.68766 9.40628 8.75016 9.40628C8.68766 9.50003 8.53141 9.65628 8.50016 9.75003C8.46891 9.96878 8.81266 10.375 8.43766 10.4688C8.18766 10.5313 8.34391 10.7188 8.43766 10.8125C8.43766 10.8125 8.31266 11.2188 8.37516 11.1875C8.12516 11.2813 8.18766 11.0625 8.18766 11.0625C8.31266 10.6875 7.96891 10.6563 8.00016 10.5938C7.68766 10.5625 8.03141 10.875 7.75016 10.875C7.68766 10.875 7.56266 10.9375 7.56266 10.9375C7.21891 10.9063 7.40641 10.5938 7.53141 10.625C7.62516 10.6563 7.71891 10.8125 7.71891 10.5938C7.71891 10.5938 7.56266 10.3438 7.96891 10.3438C7.81266 10.3438 7.71891 10.2188 7.65641 10.0625C7.59391 10.0938 7.50016 10.25 7.15641 10.2813C7.15641 10.2813 7.06266 9.93753 7.15641 10C7.28141 10.0625 7.34391 10.0625 7.46891 9.93753C7.40641 9.84378 7.03141 9.71878 7.09391 9.50003C7.09391 9.43753 7.28141 9.34378 7.28141 9.34378C7.25016 9.50003 7.34391 9.65628 7.53141 9.65628C7.78141 9.68753 7.68766 9.59378 7.71891 9.53128C7.75016 9.46878 7.93766 9.56253 7.87516 9.40628C7.87516 9.37503 7.65641 9.34378 7.71891 9.25003C7.84391 9.09378 8.03141 9.21878 8.18766 9.37503Z" fill="#ED4C5C"/>
<path d="M6.75 13.9375L6.6875 13.7812L6.75 13.5938L6.8125 13.7812L6.75 13.9375Z" fill="#ED4C5C"/>
<path d="M5.15625 9.46875V9.625H5.21875V9.75H5.0625V10.0625H5.15625V10.75H4.96875V11.0938H6.25V10.75H6.09375V10.0625H6.15625V9.75H6V9.625H6.09375V9.46875H5.78125V9.625H5.84375V9.75H5.6875V9.375H5.78125V9.21875H5.4375V9.375H5.53125V9.75H5.375V9.625H5.4375V9.46875H5.15625Z" fill="#C8B100"/>
<path d="M8.6875 13.3125V11.75H7.0625V13.3125L7.8125 13.6563H7.90625L8.6875 13.3125ZM7.8125 11.875V12.4063L7.28125 11.875H7.8125ZM7.15625 11.9063L7.78125 12.5313L7.15625 13.1563V11.9063ZM7.21875 13.2813L7.8125 12.6875V13.5625L7.21875 13.2813ZM7.90625 13.5313V12.6563L8.5 13.25L7.90625 13.5313ZM8.5625 13.1563L7.9375 12.5313L8.5625 11.9063V13.1563ZM7.90625 11.875H8.4375L7.90625 12.4063V11.875Z" fill="#C8B100"/>
<path d="M6 11.4062C6 10.9375 6.3125 10.5938 6.71875 10.5938C7.125 10.5938 7.4375 10.9687 7.4375 11.4062C7.4375 11.8437 7.125 12.2187 6.71875 12.2187C6.3125 12.2187 6 11.875 6 11.4062Z" fill="#ED4C5C"/>
<path d="M6.21875 11.4063C6.21875 11.0625 6.4375 10.8125 6.71875 10.8125C7 10.8125 7.21875 11.0938 7.21875 11.4063C7.21875 11.75 7 12 6.71875 12C6.46875 12.0313 6.21875 11.75 6.21875 11.4063Z" fill="#005BBF"/>
<path d="M6.5 11L6.375 11.3437L6.46875 11.375L6.40625 11.5H6.59375L6.53125 11.375L6.625 11.3437L6.5 11Z" fill="#C8B100"/>
<path d="M6.96875 11L6.84375 11.3437L6.9375 11.375L6.875 11.5H7.0625L7.03125 11.375L7.125 11.3437L6.96875 11Z" fill="#C8B100"/>
<path d="M6.75 11.4062L6.59375 11.75L6.6875 11.7813L6.65625 11.9062H6.8125L6.78125 11.7813L6.875 11.75L6.75 11.4062Z" fill="#C8B100"/>
</g>
<defs>
<clipPath id="clip0_1002_1641">
<rect width="20" height="20" fill="white"/>
</clipPath>
</defs>
</svg>
