<svg width="12" height="12" viewBox="0 0 12 12" fill="none" xmlns="http://www.w3.org/2000/svg">
<g clip-path="url(#clip0_1002_1714)">
<path d="M6 0C2.6916 0 0 2.6916 0 6C0 9.3084 2.6916 12 6 12C9.3084 12 12 9.3084 12 6C12 2.6916 9.3084 0 6 0ZM6 10.8C3.3534 10.8 1.2 8.6466 1.2 6C1.2 3.3534 3.3534 1.2 6 1.2C8.6466 1.2 10.8 3.3534 10.8 6C10.8 8.6466 8.6466 10.8 6 10.8Z" fill="#F88923"/>
<path d="M6.59993 3H5.3999V6.6H8.99998V5.4H6.59993V3Z" fill="#F88923"/>
</g>
<defs>
<clipPath id="clip0_1002_1714">
<rect width="12" height="12" fill="white"/>
</clipPath>
</defs>
</svg>
